<?xml version="1.0" ?><svg data-name="Adobe Folder 2020" id="Adobe_Folder_2020" viewBox="0 0 240 210" xmlns="http://www.w3.org/2000/svg"><defs><style>.cls-1{fill:#002620;}.cls-2{fill:#00e4bb;}.cls-3{fill:#c9fff3;fill-rule:evenodd;}</style></defs><title/><g id="Audition"><path class="cls-1" d="M232.5,52.5a15,15,0,0,0-15-15H7.5v150a15,15,0,0,0,15,15h195a15,15,0,0,0,15-15Z"/><path class="cls-2" d="M217.5,30H137.63A3.41,3.41,0,0,1,135,28.88L111.75,5.63A18.2,18.2,0,0,0,98.63,0H22.5A22.57,22.57,0,0,0,0,22.5v165A22.57,22.57,0,0,0,22.5,210h195A22.57,22.57,0,0,0,240,187.5V52.5A22.57,22.57,0,0,0,217.5,30Zm15,157.5a15,15,0,0,1-15,15H22.5a15,15,0,0,1-15-15V37.5h210a15,15,0,0,1,15,15Z" data-name="Path 4" id="Path_4"/><path class="cls-3" d="M83.82,135.77l-5.4,20c-.12.57-.35,1-1,1h-10c-.68,0-.79-.23-.68-1L86.08,88.27a22,22,0,0,0,.67-5.72c0-.46.23-.68.56-.68h14.32c.45,0,.68.11.79.68l21.75,73.31c.11.57,0,.91-.57.91H112.33a1,1,0,0,1-1-.84l-5.63-20.16Zm19.05-11.2c-1.92-7.55-6.43-24-8.11-32h-.12c-1.46,8-5.07,21.42-7.89,32ZM173,145.74c0,.79.11,3.15.33,7,0,.45,0,.67-.49.78-6,2.26-12.74,4.62-21.08,4.62-10.25,0-20.06-3.94-20.06-19.72v-36c0-.57.22-.9.79-.9h11c.56,0,.79.33.79.9V137c0,6.65,2.9,10.26,9.89,10.26a19.16,19.16,0,0,0,6.91-1.24v-43.6c0-.57.22-.9.79-.9h10.32c.68,0,.79.33.79.9v43.37Z"/></g></svg>